<svg xmlns="http://www.w3.org/2000/svg" viewBox="0 0 400 200" fill="none">
  <rect width="400" height="200" rx="12" fill="#faf5ff"/>
  <rect x="20" y="80" width="270" height="10" rx="2" fill="#a855f7" opacity="0.6"/>
  <rect x="20" y="65" width="270" height="20" rx="3" fill="#9333ea" opacity="0.3"/>
  <line x1="20" y1="90" x2="290" y2="90" stroke="#7c3aed" stroke-width="3"/>
  <rect x="40" y="70" width="8" height="20" rx="1" fill="#7c3aed" opacity="0.7"/>
  <rect x="120" y="70" width="8" height="20" rx="1" fill="#7c3aed" opacity="0.7"/>
  <rect x="200" y="70" width="8" height="20" rx="1" fill="#7c3aed" opacity="0.7"/>
  <rect x="270" y="70" width="8" height="20" rx="1" fill="#7c3aed" opacity="0.7"/>
  <rect x="290" y="40" width="90" height="100" rx="8" fill="#7c3aed"/>
  <rect x="305" y="50" width="55" height="40" rx="4" fill="#e9d5ff"/>
  <circle cx="60" cy="150" r="18" fill="#1e3a5f"/>
  <circle cx="60" cy="150" r="8" fill="#94a3b8"/>
  <circle cx="140" cy="150" r="18" fill="#1e3a5f"/>
  <circle cx="140" cy="150" r="8" fill="#94a3b8"/>
  <circle cx="225" cy="150" r="18" fill="#1e3a5f"/>
  <circle cx="225" cy="150" r="8" fill="#94a3b8"/>
  <circle cx="330" cy="150" r="18" fill="#1e3a5f"/>
  <circle cx="330" cy="150" r="8" fill="#94a3b8"/>
  <text x="200" y="190" text-anchor="middle" font-family="Arial" font-size="11" fill="#64748b">Jumbo Open 6m / جامبو بدون جوانب 6 متر</text>
</svg>
